<svg width="199" height="230" viewBox="0 0 199 230" fill="none" xmlns="http://www.w3.org/2000/svg">
<path d="M140.831 1.428C130.697 2.854 122.283 6.775 114.297 13.004C110.578 15.906 105.096 23.133 100.01 23.133C94.1464 23.133 87.5478 14.055 82.6615 11.118C68.4162 2.557 47.7294 4.523 35.8098 16.093C29.9551 21.776 26.1108 29.091 22.0186 36C13.2177 50.859 4.15451 66.048 9.11012 84C11.7655 93.615 22.9319 101.135 23.3197 111C23.6555 119.538 13.9872 125.856 9.22543 132C2.09613 141.199 -0.594953 152.57 1.3532 164C5.10869 186.042 28.3376 192.839 45.9231 201.259C57.1814 206.65 64.4852 216.819 75.518 222.507C93.9678 232.019 120.802 230.356 140.831 227.711C146.428 226.972 152.052 225.599 157.159 223.215C174.674 215.041 185.026 197.44 187.479 179C188.76 169.368 188.184 159.567 189.901 150C192.694 134.444 198.669 121.196 197.94 105C197.486 94.934 191.406 85.993 191.101 76C190.925 70.223 193.448 64.573 194.627 59C196.473 50.266 196.313 41.574 193.685 33C187.206 11.862 162.84 -1.668 140.831 1.428Z" fill="#78BB04"/>
<path d="M137.769 29C136.017 35.42 132.651 41.43 131.646 48C127.605 48.011 121.702 47.531 119.055 51.278C115.739 55.971 122.794 58.567 126.5 57.481C135.1 54.963 132.092 43.13 138.29 38.788C140.555 37.2 143.648 38.6 145.933 39.426C151.363 41.388 156.747 43.271 162.262 45C160.602 49.219 158.751 53.506 158.179 58C154.77 57.214 151.198 56.54 148.125 58.742C146.008 60.26 143.958 63.899 146.554 65.972C149.647 68.442 155.291 66.593 157.438 63.852C162.091 57.906 165.33 46.342 166.344 39C156.786 35.832 147.471 31.713 137.769 29ZM57.1487 32C55.2465 42.038 54.0872 52.79 54.0872 63C50.4031 63 46.2619 62.538 42.9024 64.318C38.5733 66.612 34.2984 73.421 39.104 77.397C43.8912 81.357 52.3115 77.679 54.9291 72.957C56.8569 69.48 56.8364 64.842 57.3069 61C58.206 53.658 59.2642 46.332 60.2103 39C67.6549 41.482 70.347 46.632 70.4154 54C76.4119 42.947 67.9519 34.083 57.1487 32ZM56.1282 56C55.818 56.554 55.818 55.446 56.1282 56V56ZM68.7142 59.667C68.6581 59.722 68.6009 59.778 69.055 59.333C69.1112 59.278 69.1683 59.222 68.7142 59.667ZM101.031 70.465C77.5804 74.637 65.818 101.525 74.8424 122C81.9645 138.159 99.9796 146.723 117.359 143.532C151.202 137.319 158.944 91.631 129.605 74.482C121.375 69.671 110.345 68.807 101.031 70.465Z" fill="#FBFEF5"/>
<path d="M98.9898 94C96.8426 96.352 94.8261 98.457 91.8319 99.776C89.599 100.76 86.5109 100.899 85.3179 103.314C83.2922 107.415 85.1996 114.023 86.6967 118C88.1264 121.798 90.5042 124.774 93.9025 127.084C102.986 133.262 116.662 132.427 123.963 123.907C128.634 118.455 132.824 107.018 127.709 100.529C124.104 95.956 117.7 95.048 112.256 95C113.736 96.608 114.349 97.064 116.338 98C111.846 99.063 109.364 96.095 105.205 96.302C101.961 96.463 98.8734 100.628 95.9282 102C97.8049 99.384 99.5286 97.22 98.9898 94ZM150.646 97.028C148.604 98.675 149.647 101.83 149.843 104C150.23 108.288 150.209 124.946 159.793 117.382C163.886 114.151 165.54 104.501 162.958 100.109C160.932 96.663 154.196 94.163 150.646 97.028ZM73.4769 126C72.2401 118.871 69.55 112.354 69.3949 105C66.1639 105.574 63.0259 106.46 60.9675 109.214C54.7719 117.501 64.6944 127.841 73.4769 126Z" fill="#FBFEF5"/>
<path d="M101.031 138C106.58 136.085 109.567 136.062 115.318 137C117.817 132.805 120.732 132.114 125.523 132C125.906 127.034 127.859 124.621 132.667 123C132.473 118.178 134.391 114.474 134.577 110C134.664 107.91 133.315 106.072 133.184 104.002C133.036 101.665 134.109 99.227 134.708 97C129.421 95.218 127.742 92.361 127.564 87C122.186 86.829 121.268 84.334 116.976 82.062C114.685 80.85 107.749 80.176 105.113 80.267C102.885 80.344 101.045 81.756 98.9908 82.424C81.791 88.021 73.1524 107.903 83.6616 123.675C85.3812 126.255 88.9081 130.204 91.4716 131.992C94.972 134.431 98.1376 134.424 101.031 138Z" fill="#78BB04"/>
<path d="M98.9898 94C95.47 97.777 86.0782 100.354 85.0067 105.101C80.8205 123.643 103.575 137.934 119.371 127.811C136.188 117.034 131.535 95.117 111.236 95C113.271 96.642 114.804 97.348 117.359 98C112.603 99.098 109.657 96.217 105.23 96.484C101.966 96.682 98.7316 100.465 95.9282 102C97.7774 99.339 99.3092 97.253 98.9898 94ZM152.056 114.5C162.999 119.918 164.628 108.881 162.282 99.298C160.028 96.397 151.81 93.859 149.844 98.412C147.833 103.069 153.274 109.209 152.056 114.5ZM73.4769 126C71.7502 118.94 69.6082 112.333 69.3949 105C53.6688 108.168 58.9203 128.69 73.4769 126Z" fill="#F9FDEF"/>
<path d="M100.239 107.238C98.4264 107.631 98.9846 110.275 100.802 109.897C102.615 109.52 102.074 106.84 100.239 107.238ZM110.039 107.319C108.867 108.214 110.28 110.073 111.539 109.485C113.13 108.743 111.421 106.263 110.039 107.319ZM103.072 114C104.529 118.053 107.797 118.096 109.195 114H103.072Z" fill="#78BB06"/>
<path d="M86.7436 140C85.7843 151.901 81.9982 161.418 71.4359 168C75.7945 171.999 81.3686 173.933 86.7436 176.306C100.557 182.404 115.381 186.351 130.626 185.985C136.079 185.854 147.419 185.423 150.869 180.581C155.907 173.509 152.544 159.469 150.117 152C149.228 149.262 146.903 145.992 147.197 143.039C147.506 139.932 150.966 137.865 153.077 135.91C156.939 132.336 160.118 128.775 162.262 124C159.204 122.403 153.838 118.91 150.233 119.816C146.671 120.712 145.118 126.301 143.333 129C139.569 134.693 134.562 139.146 128.585 142.535C114.766 150.372 99.898 146.782 86.7436 140ZM71.4359 129C73.8933 134.122 78.4499 137.715 83.6821 140C82.3044 135.188 78.5652 131.922 75.518 128L71.4359 129ZM44.9026 140C43.1391 142.957 41.643 146.078 39.7847 148.98C36.2905 154.434 32.1768 151.435 27.8978 154.861C23.3452 158.506 29.9408 161.77 33.5708 160.392C40.445 157.783 39.9847 144.113 48.9887 148.202C50.7256 148.991 52.4197 149.94 54.0872 150.861C55.9649 151.899 58.3386 152.96 59.75 154.61C62.2911 157.58 59.302 163.04 55.9108 164.126C53.68 164.84 51.3012 164.147 49.1408 165.333C45.9057 167.108 46.3629 170.882 50.0653 171.638C57.0865 173.072 60.5583 163.721 63.0432 159C64.077 157.037 65.916 154.525 65.4373 152.185C64.9434 149.77 62.1809 148.409 60.2052 147.312C55.3281 144.605 50.2848 141.551 44.9026 140ZM84.7026 179C84.7046 182.556 84.2076 186.745 86.4803 189.786C92.9004 198.376 108.865 195.839 113.277 187C103.646 185.047 94.4505 179.839 84.7026 179ZM121.441 188C126.75 198.005 145.698 197.266 148.995 186C139.656 187.163 130.885 188 121.441 188Z" fill="#FBFEF5"/>
</svg>
